<?xml version="1.0" standalone="no"?>
<!DOCTYPE svg PUBLIC "-//W3C//DTD SVG 20010904//EN"
 "http://www.w3.org/TR/2001/REC-SVG-20010904/DTD/svg10.dtd">
<svg version="1.0" xmlns="http://www.w3.org/2000/svg"
 width="1080.000000pt" height="1350.000000pt" viewBox="0 0 1080.000000 1350.000000"
 preserveAspectRatio="xMidYMid meet">
<metadata>
Created by potrace 1.16, written by Peter Selinger 2001-2019
</metadata>
<g transform="translate(0.000000,1350.000000) scale(0.100000,-0.100000)"
fill="#000000" stroke="none">
<path d="M9457 6683 c-4 -3 -7 -132 -7 -287 l0 -280 -23 32 c-53 72 -119 102
-221 102 -164 0 -281 -90 -341 -262 -20 -58 -20 -246 0 -312 21 -68 56 -126
104 -169 63 -57 102 -70 211 -71 113 0 165 20 230 90 l40 44 1 -33 c0 -17 2
-45 2 -62 l2 -30 65 3 c36 2 66 5 66 5 1 1 4 280 7 620 l6 617 -68 0 c-37 0
-71 -3 -74 -7z m-116 -535 c21 -12 49 -38 62 -57 46 -71 52 -99 52 -236 -1
-112 -4 -138 -24 -189 -25 -63 -78 -129 -122 -152 -36 -18 -142 -18 -178 1
-83 42 -131 156 -131 308 0 153 45 272 122 324 47 31 164 32 219 1z"/>
<path d="M6372 6580 c-4 -3 -7 -225 -7 -495 0 -269 -2 -524 -4 -565 l-4 -74
149 4 c195 6 292 6 388 0 l79 -5 0 50 c0 49 -1 50 -29 47 -16 -1 -118 -5 -227
-8 l-197 -7 2 527 c2 289 1 526 -2 527 -20 4 -143 3 -148 -1z"/>
<path d="M3488 6234 c-29 -16 -118 -110 -118 -126 0 -5 -5 -6 -10 -3 -7 4 -8
28 -4 66 l7 59 -69 0 -69 0 1 -387 1 -388 65 -3 65 -3 -1 248 c-1 176 3 260
12 291 28 91 113 147 188 124 57 -17 64 -9 64 69 l0 69 -52 -1 c-29 -1 -65 -7
-80 -15z"/>
<path d="M3936 6230 c-145 -57 -221 -176 -233 -369 -12 -185 62 -319 217 -394
60 -29 73 -31 175 -31 125 -1 185 16 263 72 26 20 32 31 32 63 0 22 -2 39 -4
39 -3 0 -25 -14 -50 -30 -113 -77 -206 -95 -299 -60 -99 37 -150 99 -176 212
-16 68 -14 96 8 108 12 6 119 10 279 10 220 0 261 2 272 15 16 19 7 121 -17
191 -23 68 -101 144 -176 172 -77 29 -219 30 -291 2z m227 -52 c70 -40 103
-96 113 -191 l7 -65 -116 -7 c-63 -4 -157 -3 -208 1 l-94 9 3 39 c7 76 72 178
137 214 27 15 130 15 158 0z"/>
<path d="M4758 6230 c-133 -51 -201 -148 -229 -332 -21 -139 16 -264 106 -354
81 -82 155 -109 295 -109 99 1 109 3 180 36 84 40 94 50 103 96 9 44 -7 50
-45 18 -47 -39 -133 -76 -193 -82 -141 -15 -271 95 -291 245 -3 28 -4 63 0 77
l7 26 274 -3 c222 -2 276 0 280 10 3 8 5 41 5 75 0 68 -30 155 -71 205 -28 34
-99 82 -149 99 -53 19 -215 15 -272 -7z m242 -61 c62 -38 100 -111 100 -193
l0 -54 -106 -7 c-95 -7 -293 0 -303 11 -2 2 2 31 9 64 16 75 57 141 107 174
51 33 142 36 193 5z"/>
<path d="M5715 6238 c-40 -14 -106 -61 -125 -87 -22 -32 -30 -25 -30 28 l0 49
-70 4 c-39 2 -71 -1 -73 -6 -2 -5 0 -32 4 -60 11 -77 10 -582 -1 -651 -5 -32
-6 -62 -2 -66 4 -3 39 -4 77 -1 l71 4 -1 272 c0 270 0 271 25 320 38 75 83
106 160 111 77 5 118 -10 152 -56 45 -61 49 -89 48 -353 0 -137 -3 -259 -6
-271 -5 -22 -3 -23 61 -27 52 -2 68 0 74 12 3 8 6 150 6 315 0 296 0 301 -24
344 -33 63 -69 94 -141 118 -42 15 -164 16 -205 1z"/>
<path d="M7317 6235 c-21 -8 -60 -26 -88 -41 -48 -27 -49 -28 -49 -75 0 -57
12 -68 35 -33 9 14 37 38 63 55 39 25 56 29 114 29 123 0 188 -64 188 -185 0
-73 -8 -78 -205 -116 -188 -36 -261 -95 -273 -219 -5 -59 26 -128 80 -174 30
-26 52 -35 94 -41 105 -13 195 10 260 67 l36 32 32 -38 c27 -33 39 -39 81 -43
62 -6 119 8 123 30 3 12 -4 17 -23 17 -15 0 -36 11 -51 27 l-25 27 3 261 c3
252 2 261 -19 301 -28 53 -91 107 -142 122 -52 16 -187 14 -234 -3z m263 -503
l0 -119 -36 -36 c-75 -75 -169 -94 -237 -47 -45 31 -57 57 -57 121 0 101 46
141 204 175 56 12 107 23 114 23 9 1 12 -29 12 -117z"/>
<path d="M8263 6229 c-23 -12 -63 -39 -88 -61 l-45 -40 0 52 0 51 -72 -3 c-67
-3 -73 -5 -70 -23 9 -64 13 -556 4 -645 -5 -58 -9 -106 -8 -106 0 -1 35 -4 76
-6 l75 -5 0 281 c0 246 2 285 17 317 22 45 91 108 121 111 12 0 36 2 52 4 57
5 96 -8 130 -43 62 -64 68 -101 63 -400 l-4 -264 65 3 66 3 9 265 c9 290 3
353 -39 420 -29 46 -84 90 -113 90 -11 0 -24 5 -27 10 -3 6 -43 10 -88 10 -61
-1 -93 -6 -124 -21z"/>
<path d="M7897 5264 c-4 -4 -7 -76 -7 -161 0 -84 -3 -153 -6 -153 -3 0 -17 9
-31 20 -34 26 -107 27 -149 1 -65 -39 -97 -182 -76 -343 12 -95 31 -139 74
-171 39 -29 114 -28 155 1 39 27 41 27 45 0 2 -13 10 -23 18 -23 13 0 15 53
15 415 0 366 -2 415 -15 418 -9 1 -19 0 -23 -4z m-38 -340 l31 -26 0 -181 0
-181 -27 -28 c-34 -35 -97 -39 -136 -8 -39 31 -51 82 -52 210 0 173 32 240
116 240 26 0 47 -8 68 -26z"/>
<path d="M6457 5193 c-4 -3 -7 -172 -7 -373 0 -386 2 -400 44 -384 14 5 16 25
16 134 l0 127 94 6 c139 8 194 42 226 142 16 50 17 161 0 219 -15 55 -70 112
-119 126 -40 11 -244 14 -254 3z m256 -60 c54 -32 72 -76 72 -178 0 -72 -4
-97 -20 -124 -36 -60 -65 -74 -165 -79 l-90 -4 0 207 0 208 86 -6 c56 -4 97
-13 117 -24z"/>
<path d="M8935 5148 c-3 -7 -6 -47 -7 -88 l-3 -75 -43 -3 c-34 -3 -43 -7 -40
-20 2 -12 15 -18 46 -20 l42 -3 0 -212 c0 -193 2 -215 20 -244 13 -23 31 -35
61 -43 51 -14 112 -2 117 23 3 15 -5 17 -57 17 -91 0 -91 1 -91 252 l0 207 72
3 c60 2 73 6 76 21 3 15 -6 17 -72 17 l-76 0 0 74 c0 41 -3 81 -6 90 -7 19
-33 21 -39 4z"/>
<path d="M7337 4990 c-50 -9 -91 -50 -111 -112 -21 -65 -22 -255 -2 -323 28
-90 103 -137 185 -115 96 26 126 91 126 280 -1 114 -3 130 -27 182 -35 75 -88
102 -171 88z m96 -60 c40 -31 52 -82 52 -215 0 -179 -27 -235 -112 -235 -85 0
-113 58 -113 235 0 125 11 177 45 211 31 31 92 32 128 4z"/>
<path d="M6950 4716 c0 -277 3 -302 35 -276 12 10 15 50 15 217 0 225 5 250
60 278 16 8 50 15 75 15 39 0 46 3 43 18 -2 13 -15 18 -59 20 -48 2 -61 -1
-87 -23 -37 -31 -42 -31 -42 0 0 18 -5 25 -20 25 -20 0 -20 -7 -20 -274z"/>
<path d="M8080 4760 c0 -253 6 -284 57 -311 35 -19 115 -15 152 7 17 10 31 22
31 26 0 4 5 8 10 8 6 0 10 -11 10 -24 0 -25 27 -43 42 -28 5 5 7 130 6 278
l-3 269 -22 3 -23 3 0 -224 0 -225 -35 -31 c-29 -25 -44 -31 -84 -31 -84 0
-85 4 -91 274 -5 230 -5 231 -27 234 l-23 3 0 -231z"/>
<path d="M8584 4971 c-17 -10 -41 -40 -55 -67 -21 -44 -23 -62 -24 -189 0
-130 2 -144 25 -189 34 -68 67 -90 133 -90 67 0 111 26 138 81 23 48 22 76 -3
81 -12 2 -22 -9 -33 -35 -26 -61 -52 -83 -101 -83 -35 0 -47 5 -68 31 -36 43
-41 67 -41 214 0 104 4 136 18 162 23 43 54 63 98 63 29 0 43 -7 64 -31 14
-18 29 -45 32 -60 4 -22 11 -29 29 -29 13 0 24 6 24 13 0 38 -25 89 -56 116
-30 27 -42 31 -92 31 -38 0 -67 -6 -88 -19z"/>
<path d="M9219 4967 c-41 -27 -62 -83 -53 -136 10 -51 67 -103 140 -126 82
-26 114 -60 114 -122 -1 -73 -34 -103 -113 -103 -56 0 -94 28 -103 76 -5 28
-10 35 -28 32 -17 -2 -21 -9 -20 -36 4 -73 63 -116 159 -116 106 1 155 50 155
155 0 49 -3 55 -43 93 -27 26 -62 47 -97 59 -89 28 -128 76 -115 139 21 92
180 91 199 -2 4 -23 11 -31 23 -28 22 4 29 48 13 78 -33 61 -164 82 -231 37z"/>
</g>
</svg>
